# xmcd
#
# Track frame offsets:
#        150
#        25397
#        46182
#        69535
#        90200
#        112210
#        137852
#        168387
#
# Disc length: 2403 seconds
#
# Revision: 0
# Processed by: cddbd v1.5.1PL2 Copyright (c) Steve Scherf et al.
# Submitted via: ExactAudioCopy v0.95a5
#
DISCID=68096108
DTITLE=Bud Powell - Time Waits
DYEAR=1958
DGENRE=Jazz
TTITLE0=Buster Rides Again
TTITLE1=Sub City
TTITLE2=Time Waits
TTITLE3=Marmalade
TTITLE4=Monopoly
TTITLE5=John's Abbey
TTITLE6=Dry Soul
TTITLE7=Sub City (Alernate Master)
EXTD=
EXTT0=
EXTT1=
EXTT2=
EXTT3=
EXTT4=
EXTT5=
EXTT6=
EXTT7=
PLAYORDER=
